<?xml version="1.0" encoding="UTF-8"?>
<!DOCTYPE svg PUBLIC "-//W3C//DTD SVG 1.1//EN" "http://www.w3.org/Graphics/SVG/1.1/DTD/svg11.dtd">
<!-- Creator: CorelDRAW X7 -->
<svg xmlns="http://www.w3.org/2000/svg" xml:space="preserve" width="158.101mm" height="129.748mm" version="1.1" style="shape-rendering:geometricPrecision; text-rendering:geometricPrecision; image-rendering:optimizeQuality; fill-rule:evenodd; clip-rule:evenodd"
viewBox="0 0 15810 12975"
 xmlns:xlink="http://www.w3.org/1999/xlink">
 <defs>
  <style type="text/css">
   <![CDATA[
    .fil4 {fill:#FEFEFE;fill-rule:nonzero}
    .fil0 {fill:url(#id0)}
    .fil2 {fill:url(#id1)}
    .fil3 {fill:url(#id2)}
    .fil1 {fill:url(#id3)}
   ]]>
  </style>
  <linearGradient id="id0" gradientUnits="userSpaceOnUse" x1="4830.39" y1="2638.51" x2="4830.39" y2="8817.63">
   <stop offset="0" style="stop-opacity:1; stop-color:#00A0E3"/>
   <stop offset="0.619608" style="stop-opacity:1; stop-color:#1C69B4"/>
   <stop offset="1" style="stop-opacity:1; stop-color:#393185"/>
  </linearGradient>
  <linearGradient id="id1" gradientUnits="userSpaceOnUse" xlink:href="#id0" x1="8641.64" y1="935.641" x2="6755.81" y2="935.641">
  </linearGradient>
  <radialGradient id="id2" gradientUnits="userSpaceOnUse" gradientTransform="matrix(2.45877 -0 2.89974E-006 2.46465 -9724 -5234)" cx="6665.71" cy="3573.38" r="3448.59" fx="6665.71" fy="3573.38">
   <stop offset="0" style="stop-opacity:1; stop-color:#393185"/>
   <stop offset="1" style="stop-opacity:1; stop-color:#00A0E3"/>
  </radialGradient>
  <radialGradient id="id3" gradientUnits="userSpaceOnUse" gradientTransform="matrix(-0.588277 1.06587 -1.45691 -0.804111 23062 6359)" cx="7320" cy="7849.61" r="4182.72" fx="7320" fy="7849.61">
   <stop offset="0" style="stop-opacity:1; stop-color:#393185"/>
   <stop offset="0.380392" style="stop-opacity:1; stop-color:#1C69B4"/>
   <stop offset="1" style="stop-opacity:1; stop-color:#00A0E3"/>
  </radialGradient>
 </defs>
 <g id="Layer_x0020_1">
  <metadata id="CorelCorpID_0Corel-Layer"/>
  <g id="_2169502069344">
   <g>
    <path class="fil0" d="M7669 3511c73,2 464,-38 533,-61 42,-35 -4,-183 18,-290 -1222,-18 -1579,174 -2531,330 17,-175 409,-771 521,-927 300,-417 540,-597 693,-796 -397,135 -1159,1040 -1392,1464 -193,352 -106,336 -498,483 -964,359 -1792,864 -2429,1451 -1083,998 -1760,2596 -332,3862 241,214 932,612 1302,662 -82,-225 -578,-506 -807,-1352 -315,-1165 235,-2354 988,-3132 202,-209 840,-766 1246,-879 -49,377 -302,751 -345,1697 -80,1728 795,3212 2421,2505 132,-57 567,-302 624,-389 -440,-14 -630,100 -1074,-60 -350,-126 -525,-218 -761,-454 -368,-368 -716,-1032 -738,-1727 -19,-585 84,-1062 242,-1594 72,-243 129,-213 333,-292 556,-217 1346,-433 1986,-501z"/>
    <path class="fil1" d="M10503 8179l-745 570c-266,173 -549,312 -859,442 -1001,419 -2518,659 -3551,81 -984,-551 -1639,-1417 -1622,-2581 4,-271 91,-539 91,-752 -555,597 -977,1629 -527,2592 808,1729 3478,1857 5172,1179 639,-255 1823,-969 2041,-1531z"/>
    <path class="fil2" d="M6821 308c159,121 464,348 601,505 -35,121 -101,159 -155,266l-423 -13c-267,335 161,222 125,613 215,-38 135,-39 268,75 475,406 302,-369 302,-378l252 -194c164,87 150,152 263,265 5,4 12,10 17,15l266 299 305 -315c-83,10 -24,19 -139,33 -55,-139 -144,-257 -208,-412 41,-129 123,-161 172,-289 -93,45 -176,88 -290,116 46,-168 114,-305 193,-429 78,-122 183,-293 208,-459 -165,36 -604,301 -887,408l98 -249c-111,83 -155,106 -247,178l-301 -149c-231,-100 -78,-123 -112,-194 -87,97 -223,225 -308,308z"/>
    <path class="fil3" d="M8593 1818c162,13 286,-18 385,102 162,196 324,392 486,588 150,187 90,168 326,148l759 -64 -45 -2166 -167 -1 0 -152 1400 0 1 164 -389 -3 389 1390 1054 209c50,35 83,26 13,63l-939 186 31 113c756,281 1512,563 2267,844 259,91 279,185 30,284l-2297 855 -31 113 939 186c70,38 37,28 -13,63l-1054 209 -389 1390 389 -3 -1 165 -1400 0 0 -153 167 -1 48 -2163 -795 -68c-171,-14 -137,-40 -243,89l-536 648c-99,120 -223,89 -385,102 -581,36 -581,-3173 0,-3137z"/>
   </g>
   <path class="fil4" d="M698 12437l0 -236 605 0 0 557c-58,57 -144,108 -256,152 -111,43 -225,65 -340,65 -146,0 -272,-31 -381,-92 -108,-61 -190,-149 -244,-263 -55,-114 -82,-239 -82,-373 0,-145 31,-275 91,-388 61,-113 150,-200 268,-260 89,-47 200,-70 333,-70 173,0 309,36 406,109 97,73 160,174 188,302l-281 53c-19,-69 -56,-123 -110,-163 -54,-39 -122,-59 -203,-59 -123,0 -220,39 -293,117 -72,78 -109,194 -109,348 0,166 37,290 110,373 74,83 170,124 289,124 59,0 118,-11 177,-35 60,-23 110,-51 153,-84l0 -177 -321 0z"/>
   <polygon id="1" class="fil4" points="1700,12950 1700,11566 1983,11566 1983,12714 2682,12714 2682,12950 "/>
   <path id="2" class="fil4" d="M2952 12260c0,-142 21,-261 64,-358 32,-71 75,-135 130,-192 55,-56 115,-98 180,-126 87,-36 188,-55 301,-55 206,0 370,64 494,192 124,128 185,305 185,533 0,226 -61,402 -184,530 -122,127 -286,191 -491,191 -207,0 -373,-63 -495,-190 -123,-127 -184,-302 -184,-525zm290 -9c0,158 37,278 110,360 73,81 166,122 278,122 113,0 205,-40 278,-121 72,-81 108,-203 108,-365 0,-160 -35,-279 -106,-358 -70,-79 -163,-118 -280,-118 -116,0 -210,40 -281,119 -71,80 -107,200 -107,361z"/>
   <path id="3" class="fil4" d="M4654 11554l558 0c111,0 193,5 247,14 55,9 103,29 146,58 43,29 79,67 107,116 29,48 43,103 43,163 0,65 -18,125 -53,179 -35,55 -82,95 -143,123 85,25 150,67 196,126 45,60 68,130 68,211 0,64 -14,126 -44,186 -30,60 -70,108 -121,144 -51,36 -114,58 -189,66 -47,5 -160,8 -340,10l-475 0 0 -1396zm283 232l0 322 184 0c110,0 178,-2 204,-5 48,-6 86,-22 114,-50 28,-27 41,-63 41,-108 0,-43 -12,-78 -35,-105 -24,-27 -60,-43 -106,-49 -28,-3 -108,-5 -241,-5l-161 0zm0 554l0 374 261 0c101,0 166,-3 193,-9 42,-7 76,-26 102,-56 27,-29 40,-69 40,-118 0,-43 -10,-78 -31,-107 -20,-29 -49,-51 -88,-64 -38,-14 -121,-20 -250,-20l-227 0z"/>
   <path id="4" class="fil4" d="M7446 12950l-304 0 -121 -318 -559 0 -116 318 -299 0 542 -1396 298 0 559 1396zm-516 -554l-194 -516 -189 516 383 0z"/>
   <polygon id="5" class="fil4" points="7732,12950 7732,11566 8015,11566 8015,12714 8714,12714 8714,12950 "/>
   <polygon id="6" class="fil4" points="9127,12950 8799,11554 9089,11554 9297,12513 9551,11554 9887,11554 10130,12529 10343,11554 10626,11554 10290,12950 9989,12950 9713,11906 9436,12950 "/>
   <polygon id="7" class="fil4" points="10892,12950 10892,11554 11175,11554 11175,12950 "/>
   <polygon id="8" class="fil4" points="11571,12950 11571,11554 11845,11554 12419,12489 12419,11554 12680,11554 12680,12950 12398,12950 11833,12032 11833,12950 "/>
   <path id="9" class="fil4" d="M13755 12437l0 -236 606 0 0 557c-58,57 -144,108 -256,152 -112,43 -225,65 -340,65 -146,0 -273,-31 -381,-92 -108,-61 -190,-149 -244,-263 -55,-114 -82,-239 -82,-373 0,-145 30,-275 91,-388 61,-113 150,-200 267,-260 90,-47 201,-70 334,-70 173,0 309,36 406,109 97,73 160,174 188,302l-281 53c-19,-69 -56,-123 -110,-163 -54,-39 -122,-59 -203,-59 -123,0 -221,39 -293,117 -72,78 -109,194 -109,348 0,166 37,290 110,373 74,83 170,124 289,124 59,0 118,-11 177,-35 60,-23 110,-51 153,-84l0 -177 -322 0z"/>
   <path id="10" class="fil4" d="M14676 12497l275 -27c16,92 50,159 100,203 50,43 118,64 204,64 90,0 158,-19 204,-57 46,-39 69,-83 69,-135 0,-33 -10,-61 -29,-84 -19,-23 -53,-43 -101,-60 -33,-12 -108,-32 -225,-61 -150,-38 -256,-84 -316,-139 -86,-77 -128,-171 -128,-282 0,-71 20,-138 60,-200 40,-62 98,-109 174,-141 75,-33 166,-49 273,-49 175,0 306,39 394,116 89,78 135,181 139,311l-282 10c-12,-73 -38,-124 -77,-156 -40,-31 -99,-47 -177,-47 -81,0 -145,17 -191,51 -29,21 -44,50 -44,87 0,33 14,61 42,84 35,31 121,62 258,94 136,32 237,66 303,101 65,34 117,81 154,141 37,61 55,135 55,223 0,79 -22,154 -66,224 -45,70 -108,122 -189,156 -81,34 -182,51 -303,51 -177,0 -312,-41 -407,-122 -94,-81 -150,-200 -169,-356z"/>
  </g>
 </g>
</svg>
